<?xml version="1.0" encoding="UTF-8" standalone="no"?><!DOCTYPE svg PUBLIC "-//W3C//DTD SVG 1.1//EN" "http://www.w3.org/Graphics/SVG/1.1/DTD/svg11.dtd"><!-- Generated by graphviz version 2.40.1 (20161225.0304)
 --><!-- Title: BinaryTree Pages: 1 --><svg xmlns="http://www.w3.org/2000/svg" xmlns:xlink="http://www.w3.org/1999/xlink" width="444pt" height="332pt" viewBox="0.00 0.00 444.47 332.00">
<g id="graph0" class="graph" transform="scale(1 1) rotate(0) translate(4 328)">
<title>BinaryTree</title>
<polygon fill="#ffffff" stroke="transparent" points="-4,4 -4,-328 440.4659,-328 440.4659,4 -4,4"/>
<!-- node0 -->
<g id="node1" class="node">
<title>node0</title>
<ellipse fill="none" stroke="#000000" cx="256.8164" cy="-306" rx="27.8442" ry="18"/>
<text text-anchor="middle" x="256.8164" y="-301.8" font-family="Arial" font-size="14.00" fill="#000000">root</text>
</g>
<!-- node11 -->
<g id="node2" class="node">
<title>node11</title>
<text text-anchor="middle" x="219.8164" y="-229.8" font-family="Arial" font-size="14.00" fill="#000000">...</text>
</g>
<!-- node0&#45;&gt;node11 -->
<g id="edge1" class="edge">
<title>node0-&gt;node11</title>
<path fill="none" stroke="#000000" d="M247.8597,-288.5708C243.6374,-280.3544 238.5018,-270.3608 233.785,-261.1821"/>
<polygon fill="#000000" stroke="#000000" points="236.7607,-259.3152 229.077,-252.0206 230.5347,-262.5147 236.7607,-259.3152"/>
</g>
<!-- node12 -->
<g id="node3" class="node">
<title>node12</title>
<ellipse fill="none" stroke="#000000" cx="294.8164" cy="-234" rx="29.6339" ry="18"/>
<text text-anchor="middle" x="294.8164" y="-229.8" font-family="Arial" font-size="14.00" fill="#000000">zero</text>
</g>
<!-- node0&#45;&gt;node12 -->
<g id="edge2" class="edge">
<title>node0-&gt;node12</title>
<path fill="none" stroke="#000000" d="M265.8218,-288.937C270.2991,-280.4537 275.8115,-270.0092 280.8234,-260.513"/>
<polygon fill="#000000" stroke="#000000" points="284.0393,-261.9182 285.6116,-251.4407 277.8486,-258.6509 284.0393,-261.9182"/>
</g>
<!-- node21 -->
<g id="node4" class="node">
<title>node21</title>
<ellipse fill="none" stroke="#000000" cx="126.8164" cy="-162" rx="46.3817" ry="18"/>
<text text-anchor="middle" x="126.8164" y="-157.8" font-family="Arial" font-size="14.00" fill="#000000">hash(l,r)</text>
</g>
<!-- node11&#45;&gt;node21 -->
<g id="edge3" class="edge">
<title>node11-&gt;node21</title>
<path fill="none" stroke="#000000" d="M196.3485,-215.8314C184.0774,-206.3312 168.9434,-194.6145 155.9312,-184.5405"/>
<polygon fill="#000000" stroke="#000000" points="157.788,-181.5517 147.7381,-178.1975 153.5027,-187.0868 157.788,-181.5517"/>
</g>
<!-- node22 -->
<g id="node5" class="node">
<title>node22</title>
<ellipse fill="none" stroke="#000000" cx="313.8164" cy="-162" rx="122.7993" ry="18"/>
<text text-anchor="middle" x="313.8164" y="-157.8" font-family="Arial" font-size="14.00" fill="#000000">hash(hash(1,2),hash(3,4))</text>
</g>
<!-- node11&#45;&gt;node22 -->
<g id="edge4" class="edge">
<title>node11-&gt;node22</title>
<path fill="none" stroke="#000000" d="M243.5365,-215.8314C255.315,-206.8096 269.703,-195.789 282.3858,-186.0745"/>
<polygon fill="#000000" stroke="#000000" points="284.6189,-188.7728 290.4294,-179.9134 280.3623,-183.2156 284.6189,-188.7728"/>
</g>
<!-- node31 -->
<g id="node6" class="node">
<title>node31</title>
<ellipse fill="none" stroke="#000000" cx="68.8164" cy="-90" rx="46.3817" ry="18"/>
<text text-anchor="middle" x="68.8164" y="-85.8" font-family="Arial" font-size="14.00" fill="#000000">hash(l,r)</text>
</g>
<!-- node21&#45;&gt;node31 -->
<g id="edge5" class="edge">
<title>node21-&gt;node31</title>
<path fill="none" stroke="#000000" d="M112.7762,-144.5708C105.6519,-135.7269 96.869,-124.8239 89.0313,-115.0945"/>
<polygon fill="#000000" stroke="#000000" points="91.7262,-112.8606 82.7273,-107.2687 86.2749,-117.2519 91.7262,-112.8606"/>
</g>
<!-- node32 -->
<g id="node7" class="node">
<title>node32</title>
<ellipse fill="none" stroke="#000000" cx="184.8164" cy="-90" rx="51.6401" ry="18"/>
<text text-anchor="middle" x="184.8164" y="-85.8" font-family="Arial" font-size="14.00" fill="#000000">hash(5,6)</text>
</g>
<!-- node21&#45;&gt;node32 -->
<g id="edge6" class="edge">
<title>node21-&gt;node32</title>
<path fill="none" stroke="#000000" d="M140.8566,-144.5708C147.9284,-135.7919 156.6347,-124.9841 164.4284,-115.3093"/>
<polygon fill="#000000" stroke="#000000" points="167.1568,-117.5015 170.7045,-107.5182 161.7055,-113.1101 167.1568,-117.5015"/>
</g>
<!-- node41 -->
<g id="node8" class="node">
<title>node41</title>
<ellipse fill="none" stroke="#000000" cx="29.8164" cy="-18" rx="29.6339" ry="18"/>
<text text-anchor="middle" x="29.8164" y="-13.8" font-family="Arial" font-size="14.00" fill="#000000">zero</text>
</g>
<!-- node31&#45;&gt;node41 -->
<g id="edge7" class="edge">
<title>node31-&gt;node41</title>
<path fill="none" stroke="#000000" d="M59.1759,-72.2022C54.6082,-63.7695 49.061,-53.5285 44.0236,-44.2288"/>
<polygon fill="#000000" stroke="#000000" points="47.0518,-42.4705 39.2114,-35.3446 40.8967,-45.8045 47.0518,-42.4705"/>
</g>
<!-- node42 -->
<g id="node9" class="node">
<title>node42</title>
<ellipse fill="none" stroke="#000000" cx="107.8164" cy="-18" rx="29.6339" ry="18"/>
<text text-anchor="middle" x="107.8164" y="-13.8" font-family="Arial" font-size="14.00" fill="#000000">zero</text>
</g>
<!-- node31&#45;&gt;node42 -->
<g id="edge8" class="edge">
<title>node31-&gt;node42</title>
<path fill="none" stroke="#000000" d="M78.4568,-72.2022C83.0245,-63.7695 88.5717,-53.5285 93.6091,-44.2288"/>
<polygon fill="#000000" stroke="#000000" points="96.736,-45.8045 98.4214,-35.3446 90.581,-42.4705 96.736,-45.8045"/>
</g>
</g>
</svg>